<?xml version="1.0" encoding="utf-8"?>
<!-- Generator: Adobe Illustrator 27.5.0, SVG Export Plug-In . SVG Version: 6.00 Build 0)  -->
<svg version="1.1" xmlns="http://www.w3.org/2000/svg" xmlns:xlink="http://www.w3.org/1999/xlink" x="0px" y="0px"
	 viewBox="0 0 500 500" style="enable-background:new 0 0 500 500;" xml:space="preserve">
<g id="BACKGROUND">
	<rect y="0" style="fill:#FFFFFF;" width="500" height="500"/>
</g>
<g id="OBJECTS">
	<g>
		<path style="fill:#F3E7DE;" d="M407.217,165.516c9.064,12.278,14.95,27.123,16.82,42.29c3.591,29.134-6.189,58.845-22.66,83.143
			c-15.987,23.582-38.553,42.975-65.028,53.5c-23.327,9.273-51.705,10.974-76.691,12.479c-27.679,1.667-58.735-11.03-82.955-23.252
			c-24.68-12.453-50.519-26.068-71.083-44.745c-30.123-27.358-50.622-66.179-52.079-106.844
			c-2.533-70.756,56.671-133.641,129.045-122.555c15.081,2.31,34.525,5.801,47.26,14.644c15.139,10.512,29.585,23.059,42.864,35.735
			c9.244,8.824,22.193,14.857,34.454,18.042c22.202,5.768,46.274,3.456,67.59,11.93C387.832,145.082,398.872,154.21,407.217,165.516
			z"/>
		<line style="fill:none;stroke:#8E8685;stroke-width:2;stroke-miterlimit:10;" x1="456.251" y1="363.78" x2="48.175" y2="363.78"/>
		<g>
			<path style="fill:#554856;" d="M227.327,78.65c0.923-0.203,1.813-0.498,2.654-0.926c4.489-2.284,9.585-3.171,14.608-3.23
				c10.325-0.122,20.787,3.677,28.198,10.954c11.682,11.471,14.88,30.675,7.546,45.312c-1.884,3.761-4.442,7.441-4.528,11.647
				c-0.128,6.29,4.413,11.351,6.737,16.825c2.524,5.946,6.086,11.724,6.83,18.319c0.727,6.446-1.709,13.707-7.454,16.719
				c-1.68,0.881-3.566,1.37-5.126,2.449c-1.755,1.215-2.941,3.066-4.342,4.676c-6.61,7.599-16.258,7.063-25.344,8.47
				c-6.844,1.059-12.417-2.785-19.152-3.079c-2.575-0.112-5.155,0.34-7.727,0.168c-5.358-0.358-10.243-3.426-13.894-7.363
				c-3.231-3.484-5.219-7.58-7.759-11.525c-2.054-3.19-5.489-4.966-7.225-8.518c-1.797-3.677-1.873-7.986-1.182-12.02
				s2.099-7.905,3.168-11.856c2.519-9.301,3.129-19.187,1.358-28.68c-0.736-3.945-2.776-7.412-3.489-11.203
				c-0.811-4.308-0.017-9.556,1.069-13.744c2.776-10.706,10.454-19.963,21.562-22.501C218.111,78.567,223.079,79.583,227.327,78.65z
				"/>
			<path style="fill:#D2A492;" d="M263.071,169.434c-4.227,14.392-2.395,30.461,4.963,43.532
				c-4.527,5.563-12.325,7.267-19.433,8.231c-14.008,1.899-28.964,0.72-41.073-6.575c5.896-4.041,9.843-12.948,9.825-20.096
				c-0.051-19.697-1.631-17.947-1.849-25.092C229.319,172.071,250.59,175.915,263.071,169.434z"/>
			<path style="fill:#D2A492;" d="M271.27,119.726c0,0,5.606,69.018-31.882,69.018c-39.061,0-35.735-69.018-35.735-69.018
				s5.539-18.218,33.951-18.218S271.27,119.726,271.27,119.726z"/>
			<path style="fill:#D2A492;" d="M265.597,154.63c3.068,0.903,6.514-0.475,8.599-2.9s2.948-5.714,2.982-8.912
				c0.021-1.967-0.365-4.152-1.924-5.351c-1.035-0.796-2.427-1.007-3.723-0.851s-2.527,0.643-3.74,1.125
				C267.054,142.785,266.333,149.585,265.597,154.63z"/>
			<path style="fill:#D2A492;" d="M211.678,154.63c-3.068,0.903-6.514-0.475-8.599-2.9s-2.948-5.714-2.982-8.912
				c-0.021-1.967,0.365-4.152,1.924-5.351c1.035-0.796,2.427-1.007,3.723-0.851s2.527,0.643,3.74,1.125
				C210.221,142.785,210.942,149.585,211.678,154.63z"/>
			<path style="fill:#554856;" d="M199.895,127.557c11.905-3.361,22.048-12.458,26.68-23.928c1.67,1.636,3.827,2.928,6.011,3.764
				c5.212,1.996,10.669,3.26,16.013,4.869s10.656,3.604,15.179,6.873s8.226,7.954,9.362,13.418
				c2.227-7.297,0.79-16.732-3.661-22.928c-4.451-6.196-11.316-10.432-18.664-12.481s-15.163-2.023-22.694-0.804
				c-7.919,1.282-15.884,4.021-21.686,9.561S197.19,120.004,199.895,127.557z"/>
			<path style="fill:#FFFFFF;" d="M211.586,212.893c17.751,6.099,37.715,5.502,55.069-1.648
				c-2.222,53.313-8.112,106.106-17.956,158.55c-8.062-1.973-16.34-3.057-24.638-3.226c0.19,0.004-0.02-25.809-0.07-28.152
				c-0.2-9.239-1.638-18.096-2.876-27.249c-2.547-18.829-4.4-37.752-5.554-56.717c-0.218-3.602-0.48-7.213-0.582-10.82
				c-0.079-2.782,0.547-5.285,0.195-8.065C214.216,227.984,212.87,220.426,211.586,212.893z"/>
			<g>
				<g>
					<path style="fill:#957E8B;" d="M265.911,218.875c-2.6,14.121-8.483,27.568-17.05,39.089c-2.438,3.278-5.101,6.386-7.951,9.313
						c-0.517,0.531,0.296,1.346,0.814,0.814c10.117-10.391,17.765-23.109,22.255-36.897c1.28-3.932,2.294-7.947,3.042-12.013
						C267.154,218.456,266.045,218.146,265.911,218.875z"/>
					<path style="fill:#957E8B;" d="M240.5,267.107c-9.06-6.62-16.472-15.422-21.521-25.439c-1.433-2.842-2.665-5.779-3.699-8.789
						c-0.239-0.697-1.352-0.397-1.11,0.306c3.733,10.873,10.082,20.802,18.383,28.756c2.314,2.217,4.779,4.269,7.366,6.16
						C240.518,268.539,241.093,267.54,240.5,267.107z"/>
				</g>
				<path style="fill:#E7CB86;" d="M242.247,268.965c-0.001-0.004-0.003-0.009-0.004-0.013c-0.152-0.702-0.303-1.405-0.424-2.112
					c-0.081-0.476-0.58-0.504-0.883-0.267c-0.325-0.13-0.692-0.088-0.972,0.235c-0.203,0.234-0.298,0.568-0.409,0.853
					c-0.134,0.346-0.258,0.697-0.371,1.05c-0.219,0.684-0.399,1.38-0.537,2.085c-0.223,1.14-0.533,2.526-0.085,3.65
					c0.462,1.16,1.745,1.572,2.844,1.025c1.17-0.582,1.476-1.899,1.425-3.111C242.881,271.211,242.589,270.046,242.247,268.965z"/>
			</g>
			<path style="fill:#8994D2;" d="M226.531,320.532c-2.443-20.882-4.887-41.765-7.33-62.647c-1.122-9.592-1.349-19.155-2.222-28.775
				c-0.442-4.867-0.756-9.748-0.839-14.635c-0.079-4.653,0.035-9.056,0.49-13.672c-5.03,5.835-13.904,8.299-20.96,10.59
				c-7.595,2.466-15.405,4.553-23.283,5.887c-6.184,1.047-12.987,2.349-17.426,7.215c-2.8,3.069-4.596,6.907-6.203,10.738
				c-12.472,29.731-15.932,62.483-16.293,94.721c-0.104,9.307,0.079,18.845,3.396,27.542c3.521,9.231,13.789,22.921,24.949,17.552
				c4.255-2.047,8.685-7.619,11.727-11.231c18.99,0.51,37.207,0.06,56.197,0.571c0.887,0.024,1.406,2.818,2.012,2.171
				c0.713-0.761,0.511-1.969,0.263-2.982C227.527,349.356,228.356,335.131,226.531,320.532z"/>
			<path style="fill:#8994D2;" d="M319.316,229.095c-0.481,19.171-0.964,38.348-2.145,57.492
				c-0.635,10.279-1.469,20.547-2.615,30.782c-0.572,5.115-1.222,10.221-1.962,15.315c-0.472,3.247-0.306,8.356-2.505,11.042
				c-2.252,2.75-7.46,3.98-10.598,5.319c-4.614,1.969-9.273,3.834-13.971,5.594c-9.208,3.45-18.567,6.495-28.043,9.123
				c-1.914,0.531-4.042,1.026-5.812,0.127c-2.945-1.496-2.982-5.621-2.598-8.902c1.344-11.485,2.688-22.971,4.031-34.456
				c2.443-20.882,4.887-41.765,7.33-62.647c1.122-9.592,2.5-19.155,3.373-28.775c0.442-4.867,0.756-9.748,0.839-14.635
				c0.079-4.653-1.186-9.056-1.641-13.672c5.03,5.835,13.904,8.299,20.96,10.59c7.864,2.554,15.902,4.569,24.042,6.023
				c3.941,0.704,8.451,0.367,10.343,3.895C319.39,223.263,319.371,226.88,319.316,229.095z"/>
			<path style="fill:#C59886;" d="M193.659,136.542c0.451,1.105,1.816,4.957,1.974,5.463c0.482,1.541,0.345,2.844,0.669,4.425
				c0.663,3.235,1.031,6.521,1.412,9.798c0.739,6.352,1.51,12.893,4.542,18.631c1.897,3.59,4.595,6.693,6.704,10.163
				c1.53,2.518,2.775,5.342,3.019,8.309c0.16,1.945,0.78,6.113-0.577,7.703c-0.995,1.166-2.9,0.616-4.204-0.191
				c-4.193-2.598-7.149-6.855-9.04-11.41c-1.891-4.555-2.815-9.443-3.727-14.291c-1.041-5.534-2.082-11.069-3.123-16.603
				c-0.831-4.417-1.524-8.856-0.905-13.363C190.774,142.482,192.06,138.743,193.659,136.542z"/>
			<path style="fill:#83707C;" d="M199.624,131.829c3.601,9.984,17.106,46.43,20.699,56.121c0.491,1.325-1.274,2.812-2.53,3.352
				l-1.206,0.519c-1.291,0.555-2.765-0.11-3.268-1.473l-20.699-56.118c-0.485-1.315,0.115-2.796,1.355-3.344l1.202-0.531
				C196.479,129.779,199.125,130.445,199.624,131.829z"/>
			<path style="fill:#D2A492;" d="M194.221,215.376c2.254-8.19-0.62-16.851-3.857-24.705c-3.237-7.854-6.947-15.944-6.387-24.421
				c0.405-6.138,3.056-11.821,6.357-16.918c1.689-2.609,3.561-5.097,5.469-7.548c0.849-1.09,3.554-3.558,3.928-0.742
				c0.445,3.354-0.759,6.697-2.134,9.789c-1.375,3.092-2.965,6.172-3.361,9.533c1.942-1.719,4.793-2.132,7.318-1.542
				c2.525,0.589,4.788,1.959,7.003,3.308c1.127,0.686,2.418,1.732,2.125,3.018c-0.218,0.959-1.285,1.507-2.268,1.535
				c-0.983,0.028-1.931-0.323-2.893-0.526c-2.484-0.525-5.169-0.026-7.298,1.357c-2.129,1.383-3.677,3.633-4.208,6.116
				c5.815-3.277,12.574-3.84,18.968-1.926c0.703,0.21,1.481,0.53,1.733,1.219c0.273,0.745-0.239,1.59-0.931,1.979
				s-1.514,0.445-2.303,0.53c-3.546,0.381-7.007,1.539-10.068,3.369c-2.64,1.578-1.785,3.24-0.974,6.206s3.124,5.275,5.543,7.174
				c2.419,1.899,5.069,3.575,7.019,5.952c3.065,3.736,4.045,8.84,3.685,13.66s-1.932,9.455-3.49,14.029
				c-4.256-0.503-8.377-1.368-12.414-2.807c-1.891-0.674-3.819-1.499-5.128-3.02c-0.498-0.578-0.893-1.246-1.16-1.961"/>
			<path style="fill:#D2A492;" d="M242.18,389.559c-10.074,2.903-19.606,7.673-27.967,13.997c-3.16,2.39-6.161,5.004-9.51,7.12
				c-3.349,2.116-7.128,3.739-11.088,3.875c-0.972,0.798-2.183,1.094-3.441,1.105c-0.52,0.004-1.08-0.083-1.452-0.446
				c-0.377-0.367-0.475-0.933-0.484-1.459c-0.025-1.45,0.48-2.871,1.21-4.124c0.73-1.254,1.68-2.362,2.625-3.463
				c-1.712,1.949-4.287,4.393-6.269,6.068c-0.913,0.772-2.104,1.558-3.217,1.122c-0.588-0.23-1.013-0.776-1.215-1.374
				c-0.202-0.598-0.207-1.245-0.149-1.874c0.184-2.009,1-3.955,2.302-5.495c-0.595,0.243-1.485-0.051-1.579-0.687
				c-0.486-3.301,1.11-6.537,2.907-9.348c3.865-6.044,8.908-11.332,14.762-15.48c10.028-7.105,19.966-12.254,32.072-14.369
				C234.227,372.542,238.646,382.141,242.18,389.559z"/>
			<path style="fill:#8994D2;" d="M318.343,221.311c4.734,4.777,7.839,10.897,10.704,16.981
				c14.31,30.383,24.587,62.662,30.479,95.726c1.809,10.153,2.973,21.482-2.852,29.992c-4.588,6.703-12.543,10.141-20.175,12.923
				c-30.747,11.205-64.282,16.596-97.003,17.136c-5.833-10.214-9.237-21.806-9.852-33.553c27.549-9.45,55.456-20.261,83.005-29.711
				C312.755,295.605,316.536,256.464,318.343,221.311z"/>
			<path style="fill:#8994D2;" d="M193.876,330.084c12.054-34.81,19.587-70.96,22.288-107.698
				c-5.492-4.481-16.418-11.032-28.576-14.719c-6.707,24.108-17.756,47.221-29.518,69.308
				c-7.083,13.302-10.383,20.057-15.063,34.382c-4.68,14.325-7.023,29.637-4.827,44.546c0.769,5.225,2.155,10.509,5.265,14.777
				c3.11,4.268,8.229,7.364,13.489,6.897c4.227-0.375,7.935-2.906,11.208-5.606C181.491,360.958,188.213,346.436,193.876,330.084z"
				/>
			<g>
				<g>
					<path style="fill:#554856;" d="M223.838,125.796c0.579-0.098,1.182-0.19,1.747-0.028c0.835,0.239,1.456,1.056,1.507,1.922
						s-0.449,1.731-1.205,2.158c-0.844,0.477-1.875,0.419-2.843,0.378c-2.285-0.098-4.576-0.029-6.851,0.206
						c-1.16,0.12-2.315,0.282-3.462,0.488c-0.585,0.105-2.341,0.804-2.864,0.505c-0.951-0.544,0.523-1.742,1.084-2.161
						c1.499-1.12,3.627-1.422,5.404-1.876C218.825,126.754,221.323,126.223,223.838,125.796z"/>
				</g>
				<g>
					<path style="fill:#554856;" d="M251.104,125.796c-0.579-0.098-1.182-0.19-1.747-0.028c-0.835,0.239-1.456,1.056-1.507,1.922
						s0.449,1.731,1.205,2.158c0.844,0.477,1.875,0.419,2.843,0.378c2.285-0.098,4.576-0.029,6.851,0.206
						c1.16,0.12,2.315,0.282,3.462,0.488c0.585,0.105,2.341,0.804,2.864,0.505c0.951-0.544-0.523-1.742-1.084-2.161
						c-1.499-1.12-3.627-1.422-5.404-1.876C256.117,126.754,253.619,126.223,251.104,125.796z"/>
				</g>
				<g>
					<g>
						<path style="fill:#FFFFFF;" d="M263.661,137.817c0.367,0.199,0.759,0.453,0.862,0.858c0.123,0.481-0.212,0.95-0.536,1.326
							c-1.386,1.606-2.966,3.045-4.695,4.274c-0.746,0.53-1.734,1.033-2.526,0.576c-0.602-0.348-0.809-1.109-0.899-1.798
							c-0.225-1.733-0.273-5.56,1.411-6.701C258.861,135.28,262.248,137.052,263.661,137.817z"/>
					</g>
					<g>
						<path style="fill:#FFFFFF;" d="M226.967,137.817c0.367,0.199,0.759,0.453,0.862,0.858c0.123,0.481-0.212,0.95-0.536,1.326
							c-1.386,1.606-2.966,3.045-4.695,4.274c-0.746,0.53-1.734,1.033-2.526,0.576c-0.602-0.348-0.809-1.109-0.899-1.798
							c-0.225-1.733-0.273-5.56,1.411-6.701C222.167,135.28,225.554,137.052,226.967,137.817z"/>
					</g>
					<g>
						<path style="fill:#554856;" d="M263.958,138.808c-1.485-1.163-3.396-1.83-5.285-2.164c1.013,1.186,1.405,2.832,1.22,4.387
							c-0.207,1.785-1.128,3.523-2.821,4.295c-1.715,0.771-3.696,0.38-5.193-0.691c-0.783-0.553-1.451-1.255-1.923-2.096
							c-0.368-0.633-0.53-1.243-0.61-1.969c-0.104-0.829-0.253-2.671,0.564-3.316c0.023-0.138,0.092-0.276,0.23-0.38
							c2.061-1.566,4.928-1.808,7.426-1.543c2.556,0.288,5.146,1.071,7.207,2.66C265.352,138.44,264.534,139.257,263.958,138.808z"
							/>
					</g>
					<g>
						<path style="fill:#554856;" d="M227.231,138.808c-1.497-1.163-3.408-1.83-5.296-2.164c1.025,1.186,1.416,2.832,1.232,4.387
							c-0.207,1.785-1.128,3.523-2.832,4.295c-1.704,0.771-3.696,0.38-5.192-0.691c-0.771-0.553-1.439-1.255-1.923-2.096
							c-0.357-0.633-0.518-1.243-0.61-1.969c-0.092-0.829-0.242-2.671,0.564-3.316c0.035-0.138,0.104-0.276,0.23-0.38
							c2.072-1.566,4.928-1.808,7.438-1.543c2.556,0.288,5.147,1.071,7.196,2.66C228.624,138.44,227.806,139.257,227.231,138.808z"
							/>
					</g>
				</g>
				<g>
					<path style="fill:#B17D69;" d="M237.725,160.55c-0.274,0-0.551-0.014-0.826-0.045c-1.184-0.134-2.195-0.606-2.845-1.33
						c-0.725-0.806-1.078-1.991-0.994-3.337c0.063-1.024,0.355-2.013,0.639-2.969l0.103-0.354c1.267-4.354,1.94-8.861,1.999-13.397
						c0.002-0.159,0.13-0.284,0.288-0.284c0.001,0,0.002,0,0.003,0c0.16,0.002,0.287,0.133,0.284,0.291
						c-0.06,4.589-0.74,9.148-2.022,13.552l-0.105,0.355c-0.274,0.925-0.557,1.883-0.617,2.842c-0.043,0.689,0.01,1.984,0.848,2.917
						c0.557,0.62,1.438,1.025,2.481,1.143c0.967,0.108,1.96-0.024,2.921-0.15c0.153-0.011,0.301,0.091,0.323,0.248
						c0.02,0.157-0.09,0.301-0.248,0.323C239.228,160.451,238.48,160.55,237.725,160.55z"/>
				</g>
				<g>
					<g>
						<path style="fill:#B17D69;" d="M247.448,167.131c-0.035,0.622-0.23,1.232-0.426,1.819c-0.357,1.14-0.633,2.314-1.174,3.385
							c-0.829,1.635-2.153,3.143-3.915,3.788c-1.808,0.679-3.799,0.403-5.538-0.357c-1.796-0.794-3.385-2.096-4.674-3.581
							c-1.013-1.163-1.854-2.556-2.107-4.087c-0.069-0.345-0.092-0.691-0.092-1.036c0-0.288,0.184-0.46,0.414-0.518
							c0.104-0.242,0.334-0.426,0.656-0.38c2.809,0.495,5.607,0.875,8.474,0.76c1.416-0.057,2.821-0.207,4.225-0.345
							c1.105-0.115,2.268-0.242,3.258-0.771c0.322-0.173,0.748-0.035,0.84,0.345C247.471,166.475,247.494,166.809,247.448,167.131z"
							/>
					</g>
					<g>
						<path style="fill:#FFFFFF;" d="M247.448,167.131c-2.199,2.567-5.699,3.845-9.084,3.765c-2.982-0.069-5.814-1.105-8.37-2.579
							c-0.127-0.069-0.253-0.15-0.38-0.219c-0.069-0.345-0.092-0.691-0.092-1.036c0-0.288,0.184-0.46,0.414-0.518
							c0.104-0.242,0.334-0.426,0.656-0.38c2.809,0.495,5.607,0.875,8.474,0.76c1.416-0.057,2.821-0.207,4.225-0.345
							c1.105-0.115,2.268-0.242,3.258-0.771c0.322-0.173,0.748-0.035,0.84,0.345C247.471,166.475,247.494,166.809,247.448,167.131z"
							/>
					</g>
				</g>
				<g>
					<path style="fill:#C5846C;" d="M263.755,150.822c0.811,0.295,1.629,0.741,2.037,1.501c0.67,1.246-0.078,2.882-1.273,3.639
						c-1.195,0.757-2.686,0.842-4.101,0.823c-1.016-0.014-2.047-0.073-3.008-0.401c-0.962-0.328-1.858-0.956-2.314-1.864
						C252.747,149.843,261.479,149.992,263.755,150.822z"/>
				</g>
				<g>
					<path style="fill:#C5846C;" d="M218.61,150.822c0.811,0.295,1.629,0.741,2.037,1.501c0.67,1.246-0.078,2.882-1.273,3.639
						c-1.195,0.757-2.686,0.842-4.101,0.823c-1.016-0.014-2.047-0.073-3.008-0.401c-0.962-0.328-1.858-0.956-2.314-1.864
						C207.602,149.843,216.333,149.992,218.61,150.822z"/>
				</g>
				<g>
					<path style="fill:#B17D69;" d="M274.861,146.787c-0.024,0-0.048-0.003-0.073-0.009c-0.154-0.04-0.245-0.198-0.206-0.352
						c0.214-0.812,0.455-1.733,0.504-2.64c0.052-0.967-0.13-1.827-0.525-2.485c-0.454-0.76-1.215-1.254-1.986-1.29
						c-0.159-0.008-0.281-0.143-0.274-0.301c0.008-0.159,0.143-0.29,0.301-0.274c0.96,0.045,1.9,0.646,2.453,1.57
						c0.453,0.757,0.663,1.728,0.606,2.812c-0.053,0.965-0.302,1.916-0.522,2.755C275.105,146.701,274.989,146.787,274.861,146.787z
						"/>
				</g>
				<g>
					<path style="fill:#B17D69;" d="M239.724,189.034c-0.112,0-0.225-0.001-0.338-0.002c-8.138-0.087-13.828-3.14-17.17-5.687
						c-3.624-2.763-5.298-5.468-5.368-5.582c-0.082-0.135-0.039-0.313,0.097-0.395c0.133-0.083,0.313-0.04,0.395,0.096
						c0.066,0.108,6.801,10.83,22.053,10.993c7.972,0.057,13.2-2.909,16.184-5.435c3.227-2.732,4.584-5.505,4.598-5.533
						c0.07-0.143,0.242-0.202,0.385-0.135c0.143,0.07,0.204,0.242,0.135,0.385c-0.057,0.118-1.426,2.912-4.745,5.723
						C252.933,186.014,247.682,189.034,239.724,189.034z"/>
				</g>
			</g>
			<g>
				<path style="fill:#362D30;" d="M278.88,170.641c-1.196-2.333-2.289-4.718-2.732-7.321c-0.124-0.729-1.234-0.42-1.11,0.306
					c1.311,7.705,9.106,14.386,5.803,22.613c-0.775,1.931-2.136,3.558-3.922,4.626c-0.635,0.38-0.057,1.376,0.581,0.994
					c3.288-1.968,5.109-5.56,5.299-9.331C283.018,178.197,280.79,174.368,278.88,170.641z"/>
				<path style="fill:#362D30;" d="M274.733,179.69c-0.181-0.718-1.292-0.414-1.11,0.306c0.758,2.998,0.801,6.209-0.233,9.154
					c-0.879,2.503-2.6,4.638-3,7.314c-0.109,0.725,1.001,1.037,1.11,0.306c0.423-2.821,2.333-5.068,3.146-7.758
					C275.564,185.971,275.507,182.752,274.733,179.69z"/>
				<path style="fill:#362D30;" d="M265.539,191.412c-0.528,2.013-1.011,4.121-0.829,6.216c0.027,0.31,0.245,0.576,0.576,0.576
					c0.291,0,0.603-0.264,0.576-0.576c-0.174-2.001,0.283-3.987,0.788-5.91C266.838,191.001,265.728,190.695,265.539,191.412z"/>
				<path style="fill:#362D30;" d="M265.947,120.808c-2.345-2.03-4.755-3.971-7.583-5.288c-3.013-1.404-6.227-2.294-9.429-3.152
					c-3.625-0.971-7.18-2.095-10.731-3.31c-1.947-0.666-3.821-1.28-5.572-2.386c-1.627-1.028-3.138-2.227-4.806-3.193
					c-0.642-0.372-1.223,0.622-0.581,0.994c2.894,1.677,5.357,3.909,8.576,4.991c3.531,1.186,7.035,2.444,10.63,3.428
					c3.175,0.869,6.386,1.645,9.462,2.831c1.51,0.582,2.985,1.274,4.362,2.128c1.272,0.789,2.415,1.755,3.573,2.699
					c2.083,1.697,4.03,3.534,5.335,5.919c0.455,0.832,0.932,1.794,1.841,2.065c0.234,0.07,0.523,0.072,0.685-0.111
					c0.228-0.257,0.054-0.657-0.13-0.946C270.034,125.053,268.118,122.684,265.947,120.808z"/>
				<path style="fill:#362D30;" d="M268.898,117.36c-1.38-1.977-2.226-4.308-4.013-5.989c-1.818-1.71-4.155-2.741-6.418-3.722
					c-2.484-1.077-5.032-2.007-7.651-2.697c-2.638-0.695-5.323-1.191-7.981-1.798c-3.031-0.692-6.029-1.544-8.822-2.933
					c-0.661-0.329-1.245,0.664-0.581,0.994c4.765,2.37,10.009,3.181,15.142,4.372c2.594,0.602,5.133,1.373,7.61,2.352
					c2.355,0.931,4.845,1.926,6.904,3.428c2.321,1.694,3.227,4.298,4.815,6.573C268.324,118.545,269.323,117.97,268.898,117.36z"/>
				<path style="fill:#362D30;" d="M276.795,119.877c-0.88-3.98-3.102-7.516-6.121-10.227c-1.724-1.549-3.67-2.831-5.727-3.892
					c-0.657-0.339-1.24,0.654-0.581,0.994c3.396,1.753,6.525,4.14,8.688,7.329c2.36,3.479,3.399,7.736,2.967,11.915
					c-0.265,2.569-1.09,5.049-1.989,7.457c-0.259,0.695,0.853,0.995,1.11,0.306C276.827,129.246,277.855,124.67,276.795,119.877z"/>
				<path style="fill:#362D30;" d="M225.353,104.799c-1.193,4.051-3.243,7.91-6.148,10.996c-1.531,1.627-3.328,2.894-5.146,4.175
					c-1.812,1.276-3.687,2.441-5.819,3.095c-2.088,0.64-4.28,1.079-6.021,2.482c-0.577,0.465,0.242,1.275,0.814,0.814
					c1.615-1.302,3.79-1.641,5.717-2.249c2.148-0.678,4.058-1.859,5.889-3.148c1.801-1.268,3.602-2.519,5.142-4.106
					c1.483-1.528,2.761-3.262,3.832-5.101c1.216-2.089,2.166-4.334,2.849-6.652C226.673,104.393,225.563,104.088,225.353,104.799z"
					/>
				<path style="fill:#362D30;" d="M221.283,101.217c-0.543,3.202-2.647,5.819-5.081,7.855c-2.439,2.041-5.333,3.622-8.355,4.605
					c-0.702,0.228-0.401,1.34,0.306,1.11c3.221-1.047,6.265-2.727,8.863-4.9c2.568-2.148,4.804-4.987,5.377-8.363
					C222.516,100.798,221.407,100.487,221.283,101.217z"/>
				<path style="fill:#362D30;" d="M226.119,81.845c-0.174-0.72-1.284-0.415-1.11,0.306c1.246,5.161,2.838,11.034,1.035,16.248
					c-0.243,0.702,0.869,1.003,1.11,0.306C229.025,93.297,227.412,87.2,226.119,81.845z"/>
				<path style="fill:#362D30;" d="M276.414,98.952c-2.55-5.504-6.188-10.594-11.325-13.96c-5.306-3.477-11.871-5.575-18.164-6.177
					c-3.94-0.377-7.867,0.065-11.685,1.076c-0.716,0.19-0.412,1.3,0.306,1.11c3.266-0.865,6.604-1.311,9.985-1.138
					c3.288,0.169,6.542,0.874,9.677,1.86c2.889,0.908,5.709,2.085,8.311,3.643c2.562,1.534,4.786,3.521,6.723,5.788
					c2.149,2.514,3.792,5.387,5.178,8.378C275.731,100.204,276.724,99.62,276.414,98.952z"/>
				<path style="fill:#362D30;" d="M275.207,106.194c-1.827-3.378-3.783-6.639-6.643-9.256c-0.546-0.499-1.362,0.313-0.814,0.814
					c2.791,2.554,4.679,5.726,6.463,9.023C274.565,107.427,275.56,106.847,275.207,106.194z"/>
			</g>
			<g>
				<path style="fill:none;stroke:#B17D69;stroke-width:0.5;stroke-linecap:round;stroke-miterlimit:10;" d="M199.815,181.82
					c0.114,2.906,1.63,5.6,3.559,7.776c1.929,2.176,4.274,3.934,6.462,5.849c2.189,1.915,4.274,4.06,5.46,6.715
					c1.711,3.833,1.351,8.231,0.958,12.41"/>
				<path style="fill:none;stroke:#B17D69;stroke-width:0.5;stroke-linecap:round;stroke-miterlimit:10;" d="M199.458,140.685
					c0.615,3.317-0.526,6.698-1.888,9.785s-2.984,6.141-3.405,9.488"/>
				<path style="fill:none;stroke:#B17D69;stroke-width:0.5;stroke-linecap:round;stroke-miterlimit:10;" d="M194.424,172.491
					c1.202-3.045,4.008-5.403,7.215-6.062c2.5-0.513,5.084-0.046,7.593,0.422"/>
				<path style="fill:none;stroke:#B17D69;stroke-width:0.5;stroke-linecap:round;stroke-miterlimit:10;" d="M200.327,179.651
					c3.965-2.565,8.525-4.203,13.215-4.748"/>
			</g>
			<g>
				<path style="fill:none;stroke:#B17D69;stroke-width:0.5;stroke-linecap:round;stroke-miterlimit:10;" d="M194.082,413.901
					c3.732-5.081,8.073-9.715,12.899-13.772"/>
				<path style="fill:none;stroke:#B17D69;stroke-width:0.5;stroke-linecap:round;stroke-miterlimit:10;" d="M192.448,405.661
					c3.601-4.105,7.451-7.992,11.522-11.632"/>
				<path style="fill:none;stroke:#B17D69;stroke-width:0.5;stroke-linecap:round;stroke-miterlimit:10;" d="M184.045,404.246
					c4.851-6.473,10.489-12.355,16.751-17.476"/>
			</g>
			<path style="fill:#636FA4;" d="M293.09,237.984c-0.661-1.852-1.879-3.466-3.12-4.967c-1.309-1.584-2.749-3.05-4.081-4.613
				c-1.628-1.91-3.2-3.871-4.807-5.798c-3.409-4.089-6.802-8.205-9.769-12.631c-0.728-1.085-1.427-2.189-2.097-3.311
				c-0.38-0.635-1.376-0.057-0.994,0.581c2.67,4.466,5.834,8.606,9.118,12.633c3.045,3.734,6.063,7.535,9.303,11.101
				c2.529,2.783,5.945,6.013,5.662,10.086c-0.154,2.218-0.916,4.389-1.686,6.457c-0.771,2.072-1.61,4.113-2.325,6.206
				c-3.51,10.27-6.401,20.735-9.436,31.152c-3.029,10.398-6.224,20.757-10.272,30.811c-3.944,9.793-6.934,19.932-10.049,30.009
				c-0.376,1.216-0.754,2.432-1.136,3.647c-0.223,0.708,0.889,1.012,1.11,0.306c3.191-10.154,6.122-20.401,9.897-30.36
				c1.911-5.041,3.932-10.026,5.669-15.133c1.767-5.195,3.379-10.442,4.933-15.705c3.112-10.538,5.995-21.147,9.441-31.584
				c0.748-2.266,1.519-4.519,2.391-6.741c0.837-2.135,1.693-4.282,2.214-6.521C293.483,241.778,293.736,239.794,293.09,237.984z"/>
			<path style="fill:#636FA4;" d="M223.114,356.761c-2.131-6.686-4.103-13.402-6.637-19.951c-2.489-6.431-5.267-12.745-7.869-19.131
				c-1.468-3.602-2.877-7.228-4.149-10.904c-0.241-0.696-1.353-0.397-1.11,0.306c4.504,13.012,10.758,25.35,15.04,38.444
				c1.253,3.832,2.39,7.702,3.615,11.543C222.228,357.77,223.34,357.47,223.114,356.761z"/>
			<path style="fill:#636FA4;" d="M318.552,331.485c-4.285,1.62-8.71,2.816-13.05,4.271c-4.44,1.489-8.867,3.009-13.321,4.456
				c-4.471,1.453-8.944,2.904-13.376,4.476c-4.358,1.547-8.838,2.696-13.219,4.169c-4.904,1.649-9.687,3.619-14.718,4.87
				c-0.719,0.178-0.414,1.289,0.306,1.11c4.488-1.116,8.806-2.77,13.153-4.325c4.348-1.555,8.835-2.672,13.205-4.159
				c4.447-1.514,8.88-3.055,13.347-4.508c4.464-1.452,8.932-2.893,13.363-4.44c4.843-1.691,9.815-2.995,14.616-4.81
				C319.545,332.336,319.247,331.223,318.552,331.485z"/>
			<path style="fill:#636FA4;" d="M317.419,224.704c-1.524,10.787-2.731,21.617-3.611,32.475c-0.06,0.738,1.092,0.734,1.151,0
				c0.872-10.756,2.061-21.485,3.57-32.169C318.632,224.285,317.523,223.972,317.419,224.704z"/>
			<path style="fill:#636FA4;" d="M312.99,268.655c-0.735,16.364-1.317,32.736-1.743,49.111c-0.119,4.597-0.226,9.194-0.321,13.791
				c-0.015,0.741,1.136,0.741,1.151,0c0.339-16.377,0.831-32.751,1.481-49.12c0.182-4.594,0.377-9.189,0.583-13.782
				C314.175,267.914,313.024,267.916,312.99,268.655z"/>
			<path style="fill:#636FA4;" d="M321.661,315.009c-1.007,4.799-2.725,9.408-5.114,13.69c-0.361,0.648,0.633,1.229,0.994,0.581
				c2.435-4.364,4.204-9.074,5.23-13.965C322.923,314.592,321.813,314.283,321.661,315.009z"/>
			<path style="fill:#636FA4;" d="M330.517,325.37c-3.151,0.711-6.179,1.913-8.962,3.552c-0.638,0.376-0.059,1.371,0.581,0.994
				c2.704-1.591,5.627-2.745,8.687-3.435C331.545,326.317,331.24,325.207,330.517,325.37z"/>
			<path style="fill:#636FA4;" d="M216.176,226.773c-1.405,9.384-2.812,18.767-4.348,28.131c-1.543,9.407-3.215,18.795-5.145,28.131
				c-1.915,9.267-4.085,18.483-6.631,27.598c-2.544,9.107-5.467,18.111-8.874,26.933c-3.076,7.964-6.654,16.007-12.431,22.414
				c-0.701,0.777-1.433,1.525-2.192,2.246c-0.538,0.512,0.277,1.325,0.814,0.814c6.206-5.9,10.2-13.601,13.43-21.428
				c3.585-8.686,6.572-17.634,9.212-26.648c2.684-9.165,4.967-18.445,6.973-27.781c2.012-9.362,3.746-18.782,5.333-28.225
				c1.588-9.449,3.027-18.922,4.448-28.397c0.174-1.16,0.348-2.321,0.522-3.481C217.395,226.355,216.286,226.042,216.176,226.773z"
				/>
			<path style="fill:#636FA4;" d="M183.235,217.488c-3.149,10.287-6.712,20.446-10.687,30.443
				c-3.989,10.033-8.394,19.901-13.194,29.573c-2.699,5.438-5.525,10.812-8.47,16.121c-0.36,0.648,0.634,1.23,0.994,0.581
				c5.263-9.485,10.139-19.184,14.607-29.069c4.433-9.808,8.469-19.795,12.091-29.93c2.058-5.759,3.98-11.566,5.77-17.413
				C184.563,217.084,183.452,216.781,183.235,217.488z"/>
			<path style="fill:#636FA4;" d="M146.534,300.094c-2.76,4.47-4.334,9.576-4.594,14.821c-0.037,0.741,1.115,0.739,1.151,0
				c0.249-5.045,1.783-9.943,4.436-14.24C147.918,300.043,146.923,299.464,146.534,300.094z"/>
			<path style="fill:#636FA4;" d="M151.227,318.479c-1.332-4.623-1.482-9.502-0.419-14.195c0.164-0.721-0.946-1.03-1.11-0.306
				c-1.109,4.891-0.971,9.987,0.419,14.807C150.321,319.496,151.433,319.194,151.227,318.479z"/>
			<path style="fill:#E7CB86;" d="M274.765,152.092c-0.52-1.04-1.567-1.737-2.599-2.198c-0.284-0.126-0.619-0.082-0.788,0.207
				c-0.144,0.245-0.079,0.66,0.207,0.788c0.764,0.341,1.569,0.793,2.033,1.516c0.554,0.863,0.392,1.929-0.002,2.827
				c-0.353,0.806-0.942,1.554-1.758,1.924c-0.738,0.335-1.726,0.334-2.385-0.183c-0.244-0.192-0.576-0.239-0.814,0
				c-0.199,0.199-0.246,0.621,0,0.814c0.963,0.755,2.241,0.95,3.395,0.525c1.131-0.415,2.01-1.338,2.517-2.416
				C275.131,154.706,275.376,153.312,274.765,152.092z"/>
		</g>
		<g>
			<path style="fill:#957E8B;" d="M103.902,348.167l-7.797,49.294c0,0-9.557,5.785-25.15,0l-4.527-49.294
				C66.428,348.167,83.279,353.448,103.902,348.167z"/>
			<ellipse style="fill:#7B6674;" cx="85.165" cy="348.167" rx="18.737" ry="3.809"/>
			<path style="fill:#B5A6AF;" d="M102.321,321.715l-5.27,27.86c-1.44,0.23-2.85,0.41-4.22,0.55c1.31-8.34,4.47-29.32,4.47-29.32
				L102.321,321.715z"/>
			<g>
				<path style="fill:#8994D2;" d="M81.081,350.415c-2.17-0.11-4.15-0.3-5.91-0.52l-6.13-26.2l0.03-0.51l0.33-5.81l0.24-4.32
					l2.44,3.95l3.19,5.17l0.06,0.28L81.081,350.415z"/>
				<path style="fill:#F3E7DE;" d="M75.331,322.455c-1.29,0.54-3.35,1.02-3.75,1.09c-0.95,0.17-1.86,0.21-2.51-0.36l0.33-5.81
					l0.24-4.32l2.44,3.95l3.19,5.17L75.331,322.455z"/>
				<path style="fill:#7B6674;" d="M72.081,317.005c-0.83,0.28-1.79,0.41-2.68,0.37l0.24-4.32L72.081,317.005z"/>
			</g>
			<g>
				<path style="fill:#E7CB86;" d="M92.291,312.805l-0.03,0.65l-1.8,38.97c-1.8,0.13-3.53,0.18-5.19,0.19l0.93-40.04l0.01-0.23
					l1.82-5.88l1.37-4.45l1.55,5.78L92.291,312.805z"/>
				<path style="fill:#F3E7DE;" d="M92.291,312.805l-0.03,0.65c-0.09,0.03-0.17,0.05-0.26,0.07c-1.88,0.42-4.36,0.2-5.8-0.95
					l0.01-0.23l1.82-5.88l1.37-4.45l1.55,5.78L92.291,312.805z"/>
				<path style="fill:#7B6674;" d="M90.951,307.795c-0.51,0.25-1.23,0.08-2.22-0.69c-0.24-0.19-0.47-0.4-0.7-0.64l1.37-4.45
					L90.951,307.795z"/>
			</g>
			<path style="fill:#C88276;" d="M103.901,348.165l-7.8,49.3c0,0-9.55,5.78-25.15,0l-4.52-49.3c0,0,3.29,1.03,8.74,1.73
				c1.76,0.22,3.74,0.41,5.91,0.52c1.33,0.06,2.73,0.1,4.19,0.1c1.66-0.01,3.39-0.06,5.19-0.19c0.78-0.05,1.57-0.12,2.37-0.2
				c1.37-0.14,2.78-0.32,4.22-0.55C99.271,349.225,101.561,348.765,103.901,348.165z"/>
		</g>
		<g>
			<g>
				<path style="fill:#A4919C;" d="M471.028,354.462c-1.874-4.122-110.928,0.75-114.676,3.748
					c-1.962,1.569-14.19,24.392-25.401,45.79c-20.615,0.387-65.459-2.497-83.124-1.695c0,0,0.401,4.455,0,5
					c-1.655,2.249,60.194,33.611,63.554,34.478c0.661,0.727,2.345,0.747,3.225,0.852c3.545,0.424,7.148,0.454,10.713,0.49
					c5.331,0.054,10.663-0.033,15.992-0.163c6.364-0.156,12.726-0.387,19.086-0.661c6.667-0.288,13.332-0.625,19.995-1.004
					c6.242-0.356,12.482-0.749,18.719-1.192c5.089-0.362,10.178-0.753,15.258-1.225c1.884-0.175,3.768-0.361,5.648-0.576
					c2.28-0.261,4.348-0.304,5.444-2.762c0.833-1.868,1.111-4.045,1.725-6.013c0.473-1.519,1.033-3.01,1.639-4.481
					c2.346-5.697,5.328-11.13,8.425-16.447c3.566-6.121,7.37-12.101,11.251-18.026c3.703-5.654,7.49-11.252,11.259-16.861
					c2.873-4.276,5.781-8.543,8.448-12.952c0.816-1.349,1.638-2.715,2.289-4.152C470.739,356.076,471.306,355.073,471.028,354.462z"
					/>
				<path style="fill:#B5A6AF;" d="M357.477,398.556c0,0-107.994,1.499-109.65,3.748c-1.655,2.249,60.194,33.611,63.554,34.478
					C314.74,437.649,357.477,398.556,357.477,398.556z"/>
				<path style="fill:#C8B6C0;" d="M337.519,408.004c-0.954,0.239-55.832,0.477-56.786,2.147
					c-0.954,1.67,41.516,20.519,41.516,20.519L337.519,408.004z"/>
				<path style="fill:#B5A6AF;" d="M311.381,436.782c0,0,41.224-80.574,44.972-83.572c3.748-2.998,115.802-7.87,117.676-3.748
					c3.287,7.231-47.927,82.799-47.97,82.823C421.936,434.534,315.128,440.905,311.381,436.782z"/>
				<path style="fill:#C8B6C0;" d="M394.872,396.644c2.449-0.037,4.786-1.038,6.908-2.26c1.994-1.149,3.913-2.557,5.143-4.502
					c1.23-1.945,1.659-4.518,0.62-6.571c-3.324-6.567-13.114-1.844-17.186,1.314C385.065,388.729,388.139,396.744,394.872,396.644z"
					/>
			</g>
			<path style="fill:#A4919C;" d="M329.879,400.633c-5.067,8.858-9.865,17.869-14.38,27.021c-1.28,2.594-2.536,5.2-3.771,7.816
				c-0.273,0.579,0.589,1.087,0.863,0.505c4.357-9.228,8.993-18.324,13.907-27.268c1.393-2.535,2.808-5.058,4.245-7.569
				C331.062,400.579,330.199,400.074,329.879,400.633z"/>
			<path style="fill:#A4919C;" d="M311.656,426.506c-8.181-3.482-16.112-7.544-23.712-12.16c-2.18-1.324-4.333-2.695-6.457-4.107
				c-0.537-0.357-1.039,0.509-0.505,0.864c7.405,4.922,15.157,9.316,23.189,13.129c2.305,1.094,4.632,2.139,6.98,3.138
				C311.737,427.619,312.247,426.758,311.656,426.506z"/>
			<path style="fill:#A4919C;" d="M319.852,413.091c-1.78-0.922-3.501-1.949-5.18-3.042c1.511-0.003,3.022-0.006,4.533-0.01
				c0.643-0.001,0.645-1.001,0-1l-26.443,0.056l-7.573,0.016c-0.643,0.001-0.645,1.001,0,1l26.443-0.056l1.469-0.003
				c0.023,0.12,0.088,0.235,0.214,0.32c1.511,1.02,3.079,1.949,4.675,2.828c-4.624,0.04-9.246,0.173-13.864,0.397
				c-1.677-1.095-3.359-2.181-5.017-3.305c-0.534-0.362-1.035,0.504-0.505,0.864c1.273,0.863,2.568,1.692,3.853,2.538
				c-3.964,0.212-7.925,0.477-11.88,0.824c-0.636,0.056-0.642,1.056,0,1c4.419-0.388,8.846-0.686,13.276-0.905
				c2.553,1.666,5.129,3.297,7.72,4.902c-1.979,0.076-3.958,0.152-5.937,0.228c-0.641,0.025-0.645,1.025,0,1
				c2.487-0.095,4.973-0.191,7.46-0.286c0.411,0.251,0.817,0.511,1.23,0.76c0.536,0.323,1.017-0.477,0.543-0.829
				c1.013-0.039,2.026-0.078,3.039-0.117c0.641-0.025,0.645-1.025,0-1c-1.516,0.058-3.033,0.116-4.549,0.175
				c-2.622-1.604-5.223-3.24-7.805-4.909c4.239-0.188,8.48-0.309,12.724-0.343c0.352-0.003,0.505-0.303,0.471-0.574
				c0.202,0.108,0.397,0.228,0.6,0.333C319.918,414.25,320.425,413.387,319.852,413.091z"/>
		</g>
	</g>
</g>
</svg>
